<?xml version="1.0" encoding="UTF-8"?>
<svg xmlns="http://www.w3.org/2000/svg" xmlns:xlink="http://www.w3.org/1999/xlink" width="375pt" height="374.999991pt" viewBox="0 0 375 374.999991" version="1.2">
<defs>
<clipPath id="clip1">
  <path d="M 2.234375 166 L 372.734375 166 L 372.734375 198 L 2.234375 198 Z M 2.234375 166 "/>
</clipPath>
<clipPath id="clip2">
  <path d="M 26 209 L 349 209 L 349 370.5 L 26 370.5 Z M 26 209 "/>
</clipPath>
</defs>
<g id="surface1">
<g clip-path="url(#clip1)" clip-rule="nonzero">
<path style=" stroke:none;fill-rule:nonzero;fill:rgb(25.099182%,4.708862%,1.568604%);fill-opacity:1;" d="M 366.558594 166.726562 L 8.410156 166.726562 C 5 166.726562 2.234375 169.492188 2.234375 172.898438 L 2.234375 191.425781 C 2.234375 194.832031 5 197.601562 8.410156 197.601562 L 366.558594 197.601562 C 369.96875 197.601562 372.734375 194.832031 372.734375 191.425781 L 372.734375 172.898438 C 372.734375 169.492188 369.96875 166.726562 366.558594 166.726562 Z M 366.558594 166.726562 "/>
</g>
<path style=" stroke:none;fill-rule:nonzero;fill:rgb(25.099182%,4.708862%,1.568604%);fill-opacity:1;" d="M 119.558594 61.75 L 144.261719 61.75 L 144.261719 92.625 C 144.261719 99.449219 149.785156 104.976562 156.609375 104.976562 C 163.433594 104.976562 168.960938 99.449219 168.960938 92.625 C 168.960938 99.449219 174.488281 104.976562 181.308594 104.976562 C 188.132812 104.976562 193.660156 99.449219 193.660156 92.625 C 193.660156 99.449219 199.1875 104.976562 206.011719 104.976562 C 212.832031 104.976562 218.359375 99.449219 218.359375 92.625 C 218.359375 99.449219 223.886719 104.976562 230.710938 104.976562 C 237.535156 104.976562 243.058594 99.449219 243.058594 92.625 L 243.058594 0 L 138.085938 0 L 138.085938 24.699219 L 119.558594 43.226562 Z M 119.558594 61.75 "/>
<path style=" stroke:none;fill-rule:nonzero;fill:rgb(25.099182%,4.708862%,1.568604%);fill-opacity:1;" d="M 101.035156 61.75 C 87.394531 61.75 76.335938 72.808594 76.335938 86.449219 L 76.335938 154.375 L 101.035156 154.375 L 101.035156 86.449219 L 131.910156 86.449219 L 131.910156 67.925781 L 113.386719 67.925781 L 113.386719 61.75 Z M 101.035156 61.75 "/>
<path style=" stroke:none;fill-rule:nonzero;fill:rgb(25.099182%,4.708862%,1.568604%);fill-opacity:1;" d="M 298.636719 154.375 L 298.636719 86.449219 C 298.636719 72.808594 287.574219 61.75 273.933594 61.75 L 255.410156 61.75 L 255.410156 86.449219 L 273.933594 86.449219 L 273.933594 154.375 Z M 298.636719 154.375 "/>
<g clip-path="url(#clip2)" clip-rule="nonzero">
<path style=" stroke:none;fill-rule:nonzero;fill:rgb(25.099182%,4.708862%,1.568604%);fill-opacity:1;" d="M 309.730469 352.222656 L 348.035156 209.949219 L 26.933594 209.949219 L 65.238281 352.222656 C 68.140625 363.003906 77.921875 370.5 89.085938 370.5 L 285.878906 370.5 C 297.046875 370.5 306.828125 363.003906 309.730469 352.222656 Z M 70.160156 240.824219 L 57.808594 240.824219 L 57.808594 228.476562 L 70.160156 228.476562 Z M 94.859375 240.824219 L 82.511719 240.824219 L 82.511719 228.476562 L 94.859375 228.476562 Z M 107.210938 228.476562 L 119.558594 228.476562 L 119.558594 240.824219 L 107.210938 240.824219 Z M 150.433594 345.800781 L 119.558594 345.800781 L 119.558594 314.925781 L 131.910156 314.925781 L 131.910156 333.449219 L 150.433594 333.449219 Z M 224.898438 294.558594 L 215.542969 304.285156 L 187.484375 333.449219 L 159.425781 304.28125 L 150.070312 294.554688 C 142.320312 286.5 142.320312 273.441406 150.070312 265.382812 C 157.820312 257.332031 170.378906 257.332031 178.128906 265.382812 L 187.484375 275.113281 L 196.839844 265.390625 C 204.589844 257.335938 217.148438 257.335938 224.898438 265.390625 C 232.648438 273.449219 232.648438 286.5 224.898438 294.558594 Z M 261.585938 265.523438 L 249.234375 265.523438 L 249.234375 247 L 230.710938 247 L 230.710938 234.648438 L 261.585938 234.648438 Z M 261.585938 265.523438 "/>
</g>
</g>
</svg>
